<?xml version="1.0" standalone="no"?>
<!DOCTYPE svg PUBLIC "-//W3C//DTD SVG 1.1//EN" "http://www.w3.org/Graphics/SVG/1.1/DTD/svg11.dtd">
<svg xmlns="http://www.w3.org/2000/svg" xmlns:xlink="http://www.w3.org/1999/xlink" version="1.1" id="Capa_1" x="0px" y="0px" viewBox="0 0 448 512" style="enable-background:new 0 0 448 512;" xml:space="preserve" width="448" height="512">
<style type="text/css">
	.st0{fill:#2BE2D0;}
</style>
<path class="st0" d="M92.1,254.6c0,24.9,7,49.2,20.2,70.1l3.1,5l-13.3,48.6l49.9-13.1l4.8,2.9c20.2,12,43.4,18.4,67.1,18.4h0.1  c72.6,0,133.3-59.1,133.3-131.8c0-35.2-15.2-68.3-40.1-93.2c-25-25-58-38.7-93.2-38.7C151.3,122.8,92.2,181.9,92.1,254.6z   M274.8,330c-12.6,1.9-22.4,0.9-47.5-9.9c-36.8-15.9-61.8-51.5-66.9-58.7c-0.4-0.6-0.7-0.9-0.8-1.1c-2-2.6-16.2-21.5-16.2-41  c0-18.4,9-27.9,13.2-32.3c0.3-0.3,0.5-0.5,0.7-0.8c3.6-4,7.9-5,10.6-5c2.6,0,5.3,0,7.6,0.1c0.3,0,0.5,0,0.8,0c2.3,0,5.2,0,8.1,6.8  c1.2,2.9,3,7.3,4.9,11.8c3.3,8,6.7,16.3,7.3,17.6c1,2,1.7,4.3,0.3,6.9c-3.4,6.8-6.9,10.4-9.3,13c-3.1,3.2-4.5,4.7-2.3,8.6  c15.3,26.3,30.6,35.4,53.9,47.1c4,2,6.3,1.7,8.6-1c2.3-2.6,9.9-11.6,12.5-15.5c2.6-4,5.3-3.3,8.9-2s23.1,10.9,27.1,12.9  c0.8,0.4,1.5,0.7,2.1,1c2.8,1.4,4.7,2.3,5.5,3.6c0.9,1.9,0.9,9.9-2.4,19.1C298.2,320.5,282.4,328.9,274.8,330L274.8,330z M448,96  c0-35.3-28.7-64-64-64H64C28.7,32,0,60.7,0,96v320c0,35.3,28.7,64,64,64h320c35.3,0,64-28.7,64-64V96z M148.1,393.9L64,416  l22.5-82.2c-13.9-24-21.2-51.3-21.2-79.3C65.4,167.1,136.5,96,223.9,96c42.4,0,82.2,16.5,112.2,46.5c29.9,30,47.9,69.8,47.9,112.2  c0,87.4-72.7,158.5-160.1,158.5C197.3,413.2,171.2,406.5,148.1,393.9L148.1,393.9z"/>
</svg>