<?xml version="1.0" standalone="no"?>
<!DOCTYPE svg PUBLIC "-//W3C//DTD SVG 1.1//EN" "http://www.w3.org/Graphics/SVG/1.1/DTD/svg11.dtd">
<svg xmlns="http://www.w3.org/2000/svg" xmlns:xlink="http://www.w3.org/1999/xlink" version="1.1" id="Capa_1" x="0px" y="0px" viewBox="0 0 448 512" style="enable-background:new 0 0 448 512;" xml:space="preserve" width="448" height="512">
<style type="text/css">
	.st0{fill:#2BE2D0;}
</style>
<path class="st0" d="M282,256.2l-95.2-54.1v108.2L282,256.2z M384,32H64C28.7,32,0,60.7,0,96v320c0,35.3,28.7,64,64,64h320  c35.3,0,64-28.7,64-64V96C448,60.7,419.3,32,384,32z M398.4,168.1c7.6,28.6,7.6,88.2,7.6,88.2s0,59.6-7.6,88.1  c-4.2,15.8-16.5,27.7-32.2,31.9C337.9,384,224,384,224,384s-113.9,0-142.2-7.6c-15.7-4.2-28-16.1-32.2-31.9  C42,315.9,42,256.3,42,256.3s0-59.7,7.6-88.2c4.2-15.8,16.5-28.2,32.2-32.4C110.1,128,224,128,224,128s113.9,0,142.2,7.7  C381.9,139.9,394.2,152.3,398.4,168.1L398.4,168.1z"/>
</svg>